# AST/ASF file generated using VICON BodyLanguage
# -----------------------------------------------
:version 1.10
:name VICON
:units
  mass 1.0
  length 0.45
  angle deg
:documentation
   .ast/.asf automatically generated from VICON data using
   VICON BodyBuilder and BodyLanguage model FoxedUp or BRILLIANT.MOD
:root
   order TX TY TZ RX RY RZ
   axis XYZ
   position 0 0 0  
   orientation 0 0 0 
:bonedata
  begin
     id 1 
     name lhipjoint
     direction 0.621563 -0.714088 0.322083 
     length 2.21591 
     axis 0 0 0  XYZ
  end
  begin
     id 2 
     name lfemur
     direction 0.34202 -0.939693 0  
     length 6.84027  
     axis 0 0 20  XYZ
    dof rx ry rz
    limits (-160.0 20.0)
           (-70.0 70.0)
           (-60.0 70.0)
  end
  begin
     id 3 
     name ltibia
     direction 0.34202 -0.939693 0   
     length 6.74005   
     axis 0 0 20   XYZ
    dof rx
    limits (-10.0 170.0)
  end
  begin
     id 4 
     name lfoot
     direction 0.0348332 -0.0960526 0.994767   
     length 1.54672   
     axis -90 7.62852e-016 20   XYZ
    dof rx rz
    limits (-45.0 90.0)
           (-70.0 20.0)
  end
  begin
     id 5 
     name ltoes
     direction 1.53538e-011 -4.22089e-011 1   
     length 0.792077   
     axis -90 7.62852e-016 20   XYZ
    dof rx
    limits (-90.0 20.0)
  end
  begin
     id 6 
     name rhipjoint
     direction -0.648389 -0.693984 0.313015   
     length 2.2801  
     axis 0 0 0  XYZ 
  end
  begin
     id 7 
     name rfemur
     direction -0.34202 -0.939693 0   
     length 6.62341   
     axis 0 0 -20   XYZ
    dof rx ry rz
    limits (-160.0 20.0)
           (-70.0 70.0)
           (-70.0 60.0)
  end
  begin
     id 8 
     name rtibia
     direction -0.34202 -0.939693 0   
     length 6.63811   
     axis 0 0 -20   XYZ
    dof rx
    limits (-10.0 170.0)
 end
 begin
     id 9 
     name rfoot
     direction -0.0578404 -0.158915 0.985596   
     length 1.64992  
     axis -90 -7.62852e-016 -20   XYZ
    dof rx rz
    limits (-45.0 90.0)
           (-20.0 70.0)
  end
  begin
     id 10 
     name rtoes
     direction -1.53571e-011 -4.21911e-011 1   
     length 0.839909   
     axis -90 -7.62852e-016 -20   XYZ
    dof rx
    limits (-90.0 20.0)
  end
  begin
     id 11 
     name lowerback
     direction 0.000554472 0.999997 -0.00226605   
     length 1.81878   
     axis 0 0 0   XYZ
    dof rx ry rz
    limits (-20.0 45.0)
           (-30.0 30.0)
           (-30.0 30.0)
  end
  begin
     id 12 
     name upperback
     direction 0.00177008 0.999761 -0.021771   
     length 1.81977   
     axis 0 0 0   XYZ
    dof rx ry rz
    limits (-20.0 45.0)
           (-30.0 30.0)
           (-30.0 30.0)
  end
  begin
     id 13 
     name thorax
     direction 0.00134147 0.999799 -0.0200243   
     length 1.81422   
     axis 0 0 0   XYZ
    dof rx ry rz
    limits (-20.0 45.0)
           (-30.0 30.0)
           (-30.0 30.0)
  end
  begin
     id 14 
     name lowerneck
     direction -0.0819714 0.987506 0.134583   
     length 1.68295   
     axis 0 0 0   XYZ
    dof rx ry rz
    limits (-20.0 45.0)
           (-30.0 30.0)
           (-30.0 30.0)
  end
  begin
     id 15 
     name upperneck
     direction 0.0867129 0.969666 -0.228538   
     length 1.71188   
     axis 0 0 0   XYZ
    dof rx ry rz
    limits (-20.0 45.0)
           (-30.0 30.0)
           (-30.0 30.0)
  end
  begin
     id 16
     name head
     direction 0.023699 0.995021 -0.0968101  
     length 1.73365  
     axis 0 0 0   XYZ
    dof rx ry rz
    limits (-20.0 45.0)
           (-30.0 30.0)
           (-30.0 30.0)
  end
  begin
     id 17 
     name lclavicle
     direction 0.912847 0.398248 0.090054  
     length 3.56518  
     axis 0 0 0   XYZ
    dof ry rz
    limits (-20.0 10.0)
           (0.0 20.0)
  end
  begin
     id 18 
     name lhumerus
     direction 1 -4.48961e-011 -4.05442e-028   
     length 4.05444   
     axis 180 -30 -90   XYZ
    dof rx ry rz
    limits (-60.0 90.0)
           (-90.0 90.0)
           (-90.0 90.0)
  end
  begin
     id 19
     name lradius
     direction 1 -4.4897e-011 1.54979e-027   
     length 3.21205   
     axis 180 -30 -90   XYZ
    dof rx
    limits (-10.0 170.0)
  end
  begin
     id 20
     name lwrist
     direction 1 -4.48979e-011 1.55564e-027   
     length 1.60602   
     axis -1.61768e-015 90 90   XYZ
    dof ry
    limits (-180.0 0.0)
 end
  begin
     id 21 
     name lhand
     direction 1 -4.48877e-011 3.11128e-027   
     length 0.707407   
     axis -1.98526e-015 90 90   XYZ
    dof rx rz
    limits (-90.0 90.0)
           (-45.0 45.0)
  end
  begin
     id 22 
     name lfingers
     direction 1 -4.49016e-011 6.22255e-027   
     length 0.57033   
     axis -3.97052e-015 90 90   XYZ
    dof rx
    limits (0.0 90.0)
  end
  begin
     id 23
     name lthumb
     direction 0.707107 -6.35011e-011 0.707107   
     length 0.818883   
     axis -90 45 2.85299e-015   XYZ
    dof rx rz
    limits (-45.0 45.0)
           (-45.0 45.0)
  end
  begin
     id 24 
     name rclavicle
     direction -0.930415 0.353791 0.0957082   
     length 3.54688  
     axis 0 0 0   XYZ 
    dof ry rz
    limits (-10.0 20.0)
           (-20.0 0.0)
  end
  begin
     id 25 
     name rhumerus
     direction -1 -4.48952e-011 -8.4136e-018  
     length 3.74048   
     axis 180 30 90   XYZ
    dof rx ry rz
    limits (-90.0 60.0)
           (-90.0 90.0)
           (-90.0 90.0)
  end
  begin
     id 26 
     name rradius
     direction -1 -4.48964e-011 1.66692e-027   
     length 3.1603   
     axis 180 30 90   XYZ
    dof rx
    limits (-10.0 170.0)
  end
  begin
     id 27 
     name rwrist
     direction -1 -4.49008e-011 1.55564e-027   
     length 1.58015   
     axis -1.61768e-015 -90 -90   XYZ
    dof ry
    limits (-180.0 0.0)
  end
  begin
     id 28
     name rhand
     direction -1 -4.48922e-011 3.11128e-027   
     length 0.717028   
     axis -1.98526e-015 -90 -90   XYZ
    dof rx rz
    limits (-90.0 90.0)
           (-45.0 45.0)
  end
  begin
     id 29
     name rfingers
     direction -1 -4.49002e-011 6.22255e-027   
     length 0.578086   
     axis -3.97052e-015 -90 -90   XYZ
    dof rx
    limits (0.0 90.0)
  end
  begin
     id 30
     name rthumb
     direction -0.707107 -6.34899e-011 0.707107   
     length 0.83002   
     axis -90 -45 -2.85299e-015   XYZ
    dof rx rz
    limits (-45.0 45.0)
           (-45.0 45.0)
  end
:hierarchy
  begin
    root lhipjoint rhipjoint lowerback
    lhipjoint lfemur
    lfemur ltibia
    ltibia lfoot
    lfoot ltoes
    rhipjoint rfemur
    rfemur rtibia
    rtibia rfoot
    rfoot rtoes
    lowerback upperback
    upperback thorax
    thorax lowerneck lclavicle rclavicle
    lowerneck upperneck
    upperneck head
    lclavicle lhumerus
    lhumerus lradius
    lradius lwrist
    lwrist lhand lthumb
    lhand lfingers
    rclavicle rhumerus
    rhumerus rradius
    rradius rwrist
    rwrist rhand rthumb
    rhand rfingers
  end

#!OML:ASF G:\acrobat\cartwheel_test\acrobat_wednesday\Session 1\acrobatwednesday.ASF
:FULLY-SPECIFIED
:DEGREES
165
root 10.7051 21.5957 -2.31285 -281.556 88.7175 -108.345
lowerback 18.2368 1.92913 0.746654
upperback 13.3435 3.23238 0.478636
thorax 4.19725 2.11041 -0.331826
lowerneck -23.0277 -4.87653 -6.80149
upperneck -6.30815 -4.30355 1.92974
head 2.07269 -1.80811 1.47526
rclavicle -1.47101e-014 1.27222e-014
rhumerus -34.5025 38.2941 -96.605
rradius 78.044
rwrist -25.4917
rhand 42.0361 -418.79
rfingers 7.12502
rthumb 64.06 -427.458
lclavicle -1.47101e-014 1.27222e-014
lhumerus -197.78 218.924 -87.2826
lradius 57.2383
lwrist 70.6143
lhand 2.24515 -366.351
lfingers 7.12502
lthumb 27.739 21.6223
rfemur -108.487 -2.52876 20.7293
rtibia 61.5525
rfoot 172.875 2.15949
rtoes 0.0835415
lfemur -107.024 5.12773 -19.4568
ltibia 52.9318
lfoot -182.902 -11.625
ltoes 62.3918
166
root 10.2208 21.6239 -2.46713 -351.231 97.2653 -168.421
lowerback 18.8224 -0.971751 6.2604
upperback 12.1041 -0.562868 1.25256
thorax 2.53475 -0.277903 -2.11764
lowerneck -21.7842 -5.04656 -6.45003
upperneck -7.93439 -4.72461 1.53485
head 1.28066 -2.05031 1.26128
rclavicle -7.95139e-015 2.06736e-014
rhumerus -32.7641 36.1237 -96.1244
rradius 76.4758
rwrist -28.798
rhand 2.53887 -446.102
rfingers 7.12502
rthumb 28.0198 -605.97
lclavicle -7.95139e-015 2.06736e-014
lhumerus -199.236 217.821 -86.372
lradius 57.2297
lwrist 69.8551
lhand 0.750006 -368.141
lfingers 7.12502
lthumb 26.3086 20.0548
rfemur -108.974 -10.9986 25.2794
rtibia 65.0406
rfoot 171.797 2.82888
rtoes -5.00147
lfemur -107.93 -2.78549 -16.7093
ltibia 55.1034
lfoot -189.444 -4.82089
ltoes 43.6248
167
root 9.70356 21.5271 -2.67185 -360.369 108.748 -165.274
lowerback 21.1605 -6.51736 10.4046
upperback 11.7162 -6.19152 1.0636
thorax 0.192412 -2.70656 -3.37033
lowerneck -21.0744 -4.92165 -6.58959
upperneck -8.16702 -4.67671 1.73283
head 1.09251 -2.06018 1.3644
rclavicle -5.38706e-014 7.35503e-014
rhumerus -33.7218 33.4563 -95.9809
rradius 73.7309
rwrist -28.4195
rhand 4.90013 -442.368
rfingers 7.12502
rthumb 30.2747 -610.094
lclavicle -5.38706e-014 7.35503e-014
lhumerus -200.451 216.967 -85.537
lradius 58.1754
lwrist 68.9994
lhand 1.34978 -369.68
lfingers 7.12502
lthumb 26.8826 18.4285
rfemur -108 -25.6741 25.7631
rtibia 68.6695
rfoot 173.863 3.75303
rtoes 2.73485
lfemur -105.052 -15.8392 -17.3702
ltibia 59.0689
lfoot -186.77 -3.15229
ltoes 31.394
168
root 8.96603 21.3732 -2.85419 -360.97 117.55 -155.712
lowerback 17.8585 -10.1348 13.4984
upperback 11.7784 -10.4506 1.33651
thorax 0.988249 -4.47672 -4.03351
lowerneck -21.4041 -4.48034 -7.54392
upperneck -7.16106 -4.01889 2.8124
head 1.53397 -1.74435 1.9453
rclavicle 2.92213e-014 -2.98177e-014
rhumerus -36.1353 32.1361 -95.679
rradius 72.9372
rwrist -27.6604
rhand 7.07803 -439.114
rfingers 7.12502
rthumb 32.35 -613.751
lclavicle 2.92213e-014 -2.98177e-014
lhumerus -200.886 216.574 -85.0604
lradius 59.3772
lwrist 68.6379
lhand -0.14924 -369.683
lfingers 7.12502
lthumb 25.4474 18.6386
rfemur -109.587 -37.2546 25.9842
rtibia 73.1152
rfoot 178.055 8.54001
rtoes 2.37543
lfemur -105.55 -25.4937 -17.5066
ltibia 62.5514
lfoot -184.013 -2.77405
ltoes 22.1585
169
root 8.11606 21.0619 -3.0732 -362.152 127.534 -146.721
lowerback 12.2084 -13.7628 16.479
upperback 12.2675 -15.566 1.23992
thorax 2.94682 -6.54977 -5.35758
lowerneck -21.6126 -4.15147 -4.81665
upperneck -5.64145 -4.38806 -0.405307
head 1.92935 -2.08577 0.350781
rclavicle 8.16663e-014 -2.72335e-014
rhumerus -37.5123 32.0155 -95.5184
rradius 71.7203
rwrist -28.1138
rhand 9.04009 -430.97
rfingers 7.12502
rthumb 34.2153 -622.294
lclavicle 8.16663e-014 -2.72335e-014
lhumerus -200.385 217.384 -85.5194
lradius 59.5822
lwrist 67.2671
lhand -0.0907332 -371.024
lfingers 7.12502
lthumb 25.5035 17.2891
rfemur -110.951 -51.3832 25.1171
rtibia 77.6039
rfoot 187.229 21.1614
rtoes 0.725131
lfemur -106.174 -36.8957 -17.8784
ltibia 68.3278
lfoot -182.21 -3.18845
ltoes 25.2759
170
root 7.40743 20.7322 -3.17844 -365.352 126.711 -138.351
lowerback 14.5441 -14.3577 15.8045
upperback 13.6884 -15.6367 0.609451
thorax 3.29761 -6.39854 -5.33514
lowerneck -22.9165 -4.50157 -6.19127
upperneck -2.94757 -4.37839 1.65044
head 2.75625 -2.02157 1.11316
rclavicle 1.73092e-013 -6.53008e-014
rhumerus -35.1808 32.552 -94.531
rradius 68.997
rwrist -28.0346
rhand 12.9124 -414.402
rfingers 7.12502
rthumb 37.8832 -800.233
lclavicle 1.73092e-013 -6.53008e-014
lhumerus -197.287 219.033 -87.7561
lradius 59.7911
lwrist 65.6861
lhand 0.114332 -372.384
lfingers 7.12502
lthumb 25.6999 15.9011
rfemur -105.085 -51.0226 19.7994
rtibia 83.3283
rfoot 216.711 58.8003
rtoes -4.26028
lfemur -103.418 -37.4793 -20.6902
ltibia 75.761
lfoot -178.452 -1.31451
ltoes 38.5409
171
root 6.69698 20.3098 -3.26634 -370.151 124.478 -133.099
lowerback 17.5273 -14.0056 13.3872
upperback 14.0929 -14.7241 -0.223653
thorax 2.66714 -5.9972 -4.73854
lowerneck -19.5296 -4.69237 -6.39723
upperneck -3.41187 -4.85141 1.65472
head 2.48526 -2.27432 1.28477
rclavicle 6.27787e-014 -3.38679e-014
rhumerus -33.8262 32.7742 -94.0301
rradius 66.0235
rwrist -27.201
rhand 17.4557 -388.761
rfingers 7.12502
rthumb 42.1579 -773.298
lclavicle 6.27787e-014 -3.38679e-014
lhumerus -196.73 219.749 -88.136
lradius 60.643
lwrist 63.7202
lhand 0.0639047 -372.621
lfingers 7.12502
lthumb 25.6516 15.6705
rfemur -99.2919 -48.0209 13.5065
rtibia 80.9482
rfoot 303.057 52.5633
rtoes -8.23047
lfemur -100.226 -36.335 -24.6644
ltibia 87.1047
lfoot -137.96 45.7825
ltoes 23.7827
172
root 5.99817 19.7953 -3.3699 -374.376 121.821 -128.191
lowerback 19.7721 -13.4382 11.3692
upperback 15.312 -13.7224 -0.946366
thorax 3.31521 -5.44075 -4.50242
lowerneck -23.2472 -4.77207 -7.87404
upperneck 1.18536 -4.43488 4.32509
head 4.21202 -1.95634 2.16725
rclavicle 8.91052e-014 8.79622e-014
rhumerus -29.0776 32.9272 -91.8697
rradius 62.5727
rwrist -25.4838
rhand 15.1168 -365.468
rfingers 7.12502
rthumb 39.9616 -750.705
lclavicle 8.91052e-014 8.79622e-014
lhumerus -192.515 222.423 -91.6723
lradius 60.3988
lwrist 64.369
lhand -1.58102 -372.702
lfingers 7.12502
lthumb 24.0752 15.8081
rfemur -93.7324 -44.0664 8.17
rtibia 69.0567
rfoot 346.269 23.6809
rtoes 12.7487
lfemur -97.7692 -34.7012 -27.1558
ltibia 85.7401
lfoot -37.4711 50.9598
ltoes 28.265
173
root 5.28955 19.1687 -3.46668 -377.956 118.951 -124.496
lowerback 20.219 -12.1913 9.16444
upperback 16.0749 -12.3394 -1.36962
thorax 4.4577 -4.77843 -4.20043
lowerneck -23.8367 -4.79081 -5.93795
upperneck 2.263 -4.81865 2.59496
head 4.56541 -2.24903 1.25528
rclavicle -1.09928e-013 6.24184e-014
rhumerus -24.7596 30.5635 -89.4735
rradius 60.0382
rwrist -22.2552
rhand 12.7751 -358.163
rfingers 7.12502
rthumb 37.7535 -744.029
lclavicle -1.09928e-013 6.24184e-014
lhumerus -189.521 222.411 -93.7023
lradius 59.1819
lwrist 63.3541
lhand -2.30779 -371.825
lfingers 7.12502
lthumb 23.3782 16.7756
rfemur -89.819 -39.4659 3.73546
rtibia 55.9012
rfoot 353.001 25.1242
rtoes -32.1089
lfemur -96.5101 -32.7736 -27.8314
ltibia 69.4683
lfoot 3.67858 2.26717
ltoes 25.8221
174
root 4.48368 18.4412 -3.59184 -378.786 117.793 -122.93
lowerback 15.8559 -10.8369 7.82721
upperback 14.6537 -11.6163 -1.81815
thorax 5.20713 -4.57007 -4.66956
lowerneck -23.5586 -4.68102 -4.52598
upperneck 4.74335 -5.00597 1.37596
head 5.26142 -2.4362 0.602286
rclavicle 6.83819e-014 1.72148e-013
rhumerus -24.0645 25.8738 -88.4732
rradius 56.9186
rwrist -16.941
rhand 7.66807 -347.408
rfingers 7.12502
rthumb 32.9114 -734.426
lclavicle 6.83819e-014 1.72148e-013
lhumerus -189.914 221.516 -93.2181
lradius 56.7835
lwrist 61.1516
lhand -1.59535 -372.537
lfingers 7.12502
lthumb 24.0615 15.9748
rfemur -90.9497 -37.9774 -1.02436
rtibia 42.5539
rfoot 351.917 29.9305
rtoes -50.3186
lfemur -100.871 -32.3696 -25.3472
ltibia 53.7078
lfoot 174.391 -166.867
ltoes 57.3621
175
root 3.81361 17.5196 -3.71636 -382.417 115.335 -118.639
lowerback 17.0808 -10.0316 7.4486
upperback 14.2981 -10.556 -2.43036
thorax 4.25927 -4.09834 -5.1001
lowerneck -23.5892 -4.31405 -4.20571
upperneck 9.08113 -4.60463 1.02351
head 6.65454 -2.28805 0.436334
rclavicle -2.5842e-014 -7.55382e-015
rhumerus -24.136 21.3722 -87.3424
rradius 56.871
rwrist -14.3352
rhand 4.10608 -349.468
rfingers 7.12502
rthumb 29.517 -737.142
lclavicle -2.5842e-014 -7.55382e-015
lhumerus -191.733 220.152 -92.0705
lradius 54.5076
lwrist 56.4403
lhand -2.00354 -374.552
lfingers 7.12502
lthumb 23.67 14.0111
rfemur -83.8983 -33.8782 -9.83559
rtibia 27.5854
rfoot 356.02 49.9037
rtoes -44.9284
lfemur -99.7046 -30.4057 -20.6403
ltibia 35.8878
lfoot 139.087 -164.278
ltoes 56.4909
176
root 3.06807 16.4857 -3.83271 -385.886 113.105 -116.128
lowerback 15.6561 -8.74319 6.30813
upperback 13.4352 -9.34272 -2.87069
thorax 4.26878 -3.63059 -5.28905
lowerneck -24.1173 -3.99731 -4.39377
upperneck 14.8737 -4.15847 1.19829
head 8.69027 -2.07811 0.524178
rclavicle 7.59357e-014 1.94809e-014
rhumerus -24.284 17.5245 -85.8745
rradius 56.6366
rwrist -15.759
rhand -1.94414 -352.033
rfingers 7.12502
rthumb 23.727 -740.589
lclavicle 7.59357e-014 1.94809e-014
lhumerus -191.335 219.203 -92.4949
lradius 51.109
lwrist 51.7456
lhand -4.58792 -375.518
lfingers 7.12502
lthumb 21.1893 13.3444
rfemur -76.4732 -29.1462 -26.8754
rtibia 12.2875
rfoot 375.99 57.8268
rtoes -53.0828
lfemur -103.342 -27.4032 -15.1707
ltibia 25.806
lfoot 21.7429 -24.8948
ltoes -0.00976588
177
root 2.32107 15.3342 -3.91601 -391.627 110.393 -114.904
lowerback 14.6792 -7.346 4.5789
upperback 12.9344 -7.90728 -3.27831
thorax 4.56226 -3.05845 -5.08107
lowerneck -25.3472 -3.66441 -4.32169
upperneck 20.5557 -3.60146 0.991501
head 10.9151 -1.83172 0.476331
rclavicle 9.02482e-014 8.84592e-014
rhumerus -23.349 14.0329 -83.9151
rradius 55.5926
rwrist -17.9843
rhand -8.34643 -354.28
rfingers 7.12502
rthumb 17.5755 -743.506
lclavicle 9.02482e-014 8.84592e-014
lhumerus -191.704 217.029 -93.0035
lradius 49.4975
lwrist 46.4614
lhand -8.14828 -376.955
lfingers 7.12502
lthumb 17.7662 12.2529
rfemur -97.5971 -27.7419 2.97873
rtibia 42.1455
rfoot 378.745 29.4957
rtoes -42.289
lfemur -100.868 -25.9482 -24.4295
ltibia 46.2871
lfoot -35.8496 -4.18784
ltoes 49.9904
